<?xml version="1.0" encoding="UTF-8" standalone="no"?><!DOCTYPE svg PUBLIC "-//W3C//DTD SVG 1.1//EN" "http://www.w3.org/Graphics/SVG/1.1/DTD/svg11.dtd"><svg xmlns="http://www.w3.org/2000/svg" xmlns:xlink="http://www.w3.org/1999/xlink" version="1.1" width="586" height="554" viewBox="0 0 586 554">
<desc>Created with SVGMaker Editor 2.2.1</desc>
<defs>
</defs>
<path transform="translate(0,0)" style="fill: rgb(224,200,229); fill-rule: evenodd" stroke-linecap="round" d="M 129.34 102.51 C 134.31 115.85 139.29 126.31 141.24 127.49 C 144.14 129.24 189.62 137.53 197.44 137.74 C 203 137.88 205.5 136.69 207.28 133.05 C 208.47 130.61 208.61 127.44 208.63 101.01 C 208.66 73.3 208.58 71.55 207.2 69.28 C 206.06 67.4 200.99 64.17 184.27 54.66 C 172.46 47.94 154 37.37 143.24 31.17 C 116.57 15.79 114.82 14.92 110.61 14.92 C 108.68 14.92 106.37 15.44 105.46 16.08 C 103.4 17.52 101.98 22.57 102.64 26.13 C 103.43 30.43 117.85 71.64 129.35 102.52 Z M 129.08 44.32 C 129.5 44.48 143.41 52.39 160.01 61.9 L 190.18 79.19 L 190.2 98.55 C 190.21 109.2 190.08 117.91 189.91 117.91 C 189.14 117.91 152.3 111.82 152.22 111.68 C 152.17 111.59 150.18 105.94 147.81 99.11 C 145.44 92.29 142.7 84.5 141.72 81.82 C 140.74 79.13 137.54 70.09 134.61 61.73 C 131.68 53.37 129.07 45.96 128.8 45.27 C 128.53 44.56 128.65 44.14 129.08 44.31 Z"/>
<path transform="translate(0,0)" style="fill: rgb(224,200,229); fill-rule: evenodd" stroke-linecap="round" d="M 261.67 381.54 C 262.93 380.64 264.19 379.74 265.46 378.84 L 265.46 356.79 C 264.2 357.75 262.94 358.72 261.67 359.68 L 261.67 381.54 Z"/>
<path transform="translate(0,0)" style="fill: rgb(224,200,229); fill-rule: evenodd" stroke-linecap="round" d="M 284.09 79.39 L 275.34 88.23 L 275.08 235.98 L 274.82 383.73 L 293.23 383.73 C 293.23 383.73 293.95 383.73 293.95 383.73 L 311.62 383.73 L 311.36 235.98 L 311.1 88.23 L 302.35 79.39 C 298.65 75.66 295.38 72.46 293.95 71.17 L 293.95 71.17 C 293.56 70.82 293.31 70.61 293.23 70.58 L 293.23 70.58 C 293.23 70.58 293.23 70.58 293.23 70.58 C 293.23 70.58 293.23 70.58 293.23 70.58 L 293.23 70.58 C 293.15 70.62 292.9 70.83 292.51 71.18 L 292.51 71.18 C 291.08 72.47 287.81 75.67 284.11 79.4 Z"/>
<path transform="translate(0,0)" style="fill: rgb(224,200,229); fill-rule: evenodd" stroke-linecap="round" d="M 202.27 271.08 C 202.27 271.42 202.14 277.72 201.97 285.09 C 201.8 292.46 201.87 298.27 202.13 298.01 C 202.39 297.75 204.01 292.65 205.72 286.69 L 208.83 275.84 L 205.55 273.15 C 203.74 271.67 202.27 270.74 202.28 271.07 Z"/>
<path transform="translate(0,0)" style="fill: rgb(224,200,229); fill-rule: evenodd" stroke-linecap="round" d="M 136.66 297.27 C 130.66 294.86 83.86 281.84 81.2 281.85 C 79.75 281.85 77.63 282.47 76.49 283.22 C 72.42 285.9 2 356.66 0.99 359.08 C -0.55 362.77 -0.29 366.3 1.67 368.13 C 5.91 372.1 9.59 372.21 47.93 369.42 C 99.56 365.68 114.21 363.94 117.22 361.21 C 119.34 359.29 138.72 319.62 141.81 310.88 C 144.2 304.1 142.5 299.62 136.65 297.26 Z M 112.73 329.81 L 105.08 346.4 L 99.71 346.88 C 84.27 348.26 33.81 351.35 33.81 350.92 C 33.81 350.64 45.06 339.39 58.81 325.92 C 72.56 312.45 83.98 301.4 84.19 301.38 C 85.58 301.22 119.78 311.71 120.04 312.38 C 120.22 312.84 116.92 320.68 112.72 329.81 Z"/>
<path transform="translate(0,0)" style="fill: rgb(224,200,229); fill-rule: evenodd" stroke-linecap="round" d="M 251.13 383.35 L 251.13 244.62 C 251.13 168.32 251.04 105.89 250.94 105.89 C 250.84 105.89 242.88 113.76 233.27 123.38 L 215.79 140.87 L 215.79 383.35 L 251.13 383.35 Z"/>
<path transform="translate(0,0)" style="fill: rgb(224,200,229); fill-rule: evenodd" stroke-linecap="round" d="M 72.95 193.32 C 80.58 199.46 89.87 206.83 93.6 209.69 C 97.32 212.55 113.56 225.22 129.69 237.83 C 145.82 250.44 159.23 260.77 159.5 260.77 C 159.77 260.77 162.78 257.72 166.19 253.98 C 172.02 247.6 172.31 247.11 170.97 246.17 C 166.5 243.04 91.65 183.9 91.87 183.68 C 92.18 183.37 124.92 182.2 164.65 181.09 C 180.16 180.66 195.64 180.11 199.05 179.87 L 205.25 179.44 L 205.25 160.78 L 193.78 160.9 C 187.47 160.97 173.52 161.28 162.76 161.59 C 120.17 162.84 79.49 164.75 67.77 166.05 C 56.73 167.27 53.42 171.23 57.24 178.64 C 58.69 181.46 61.8 184.37 72.93 193.32 Z"/>
<path transform="translate(0,0)" style="fill: rgb(224,200,229); fill-rule: evenodd" stroke-linecap="round" d="M 213.15 391.35 L 201.88 398.68 C 201.54 400.62 201.3 402.3 200.64 404.18 C 198.89 409.17 186.19 420.53 181.71 424.97 C 177.48 429.15 172.75 433.77 168.62 438.06 C 165 441.82 157.27 448.3 152.12 444.77 C 150.93 443.95 150.05 443.12 149.18 441.96 C 147.49 439.71 145.46 431.83 145.5 431.49 C 145.59 430.65 140.15 446.25 146.13 450.76 C 147.39 451.71 149 452.13 149.46 452.23 C 152.29 452.85 155.07 451.97 158.13 450.79 C 165.4 447.97 173.68 441.39 180.31 437.02 C 194.5 427.67 208.44 417.81 222.54 408.1 C 228.96 403.68 236.37 398.88 242.73 394.58 C 243.34 394.17 244.14 393.3 244.49 392.28 L 215.41 392.28 C 215.19 392.28 213.81 391.48 213.16 391.35 Z"/>
<path transform="translate(0,0)" style="fill: rgb(224,200,229); fill-rule: evenodd" stroke-linecap="round" d="M 156.39 277.82 L 156.39 437.85 L 174.06 420.19 L 191.73 402.53 L 191.73 323.38 C 191.73 279.85 191.48 244.25 191.17 244.27 C 190.86 244.29 182.91 251.84 173.5 261.06 L 156.39 277.81 Z"/>
<path transform="translate(0,0)" style="fill: rgb(224,200,229); fill-rule: evenodd" stroke-linecap="round" d="M 254.51 96.18 C 259.05 97.81 261.03 102.32 261.5 112.09 L 261.86 119.63 L 263.66 115.21 C 264.03 114.13 264.4 113.05 264.78 111.97 C 264.94 108.59 265.16 103.34 265.27 96.87 C 265.45 86.64 265.03 83.81 266.57 79.93 C 268.03 76.25 270.98 73.18 276.83 67.09 L 285.42 58.14 L 289.06 47.76 C 290.39 43.98 291.67 40.79 292.48 39.15 L 292.48 39.15 C 292.81 38.48 293.06 38.08 293.21 38 C 293.35 38.07 293.61 38.48 293.94 39.15 L 293.94 39.15 C 294.75 40.79 296.03 43.98 297.36 47.76 L 301 58.14 L 309.59 67.09 C 315.44 73.18 318.39 76.25 319.85 79.93 C 321.39 83.81 320.97 86.63 321.15 96.87 C 321.26 103.34 321.48 108.59 321.64 111.97 C 322.01 113.05 322.38 114.13 322.76 115.21 L 324.56 119.63 L 324.92 112.09 C 325.39 102.32 327.37 97.81 331.91 96.18 C 333.56 95.59 335 95.05 335.11 94.98 C 335.35 94.83 320.48 53.26 314.4 37.09 C 303.07 6.93 301.53 3.78 296.83 1.27 C 295.42 0.52 294.65 0.12 293.94 0.02 C 293.66 0 293.46 -0.01 293.2 0 L 293.2 0 C 292.95 0 292.75 0 292.48 0.02 C 291.77 0.12 291 0.52 289.59 1.27 C 284.89 3.77 283.35 6.93 272.02 37.09 C 265.95 53.26 251.08 94.83 251.31 94.98 C 251.41 95.04 252.85 95.58 254.51 96.18 Z"/>
<path transform="translate(0,0)" style="fill: rgb(224,200,229); fill-rule: evenodd" stroke-linecap="round" d="M 379.16 133.04 C 380.94 136.68 383.44 137.87 389 137.73 C 396.82 137.53 442.29 129.24 445.2 127.48 C 447.15 126.3 452.13 115.85 457.1 102.5 C 468.6 71.62 483.02 30.41 483.81 26.11 C 484.47 22.55 483.05 17.5 480.99 16.06 C 480.08 15.42 477.77 14.9 475.84 14.9 C 471.63 14.9 469.88 15.77 443.21 31.15 C 432.46 37.35 414 47.92 402.18 54.64 C 385.46 64.15 380.38 67.39 379.25 69.26 C 377.87 71.54 377.79 73.28 377.82 100.99 C 377.84 127.41 377.98 130.58 379.17 133.03 Z M 396.23 98.56 L 396.25 79.2 L 426.42 61.91 C 443.01 52.4 456.93 44.48 457.35 44.33 C 457.78 44.17 457.9 44.58 457.63 45.29 C 457.37 45.98 454.75 53.38 451.82 61.75 C 448.89 70.11 445.69 79.15 444.71 81.84 C 443.73 84.53 440.99 92.31 438.62 99.13 C 436.25 105.95 434.27 111.61 434.21 111.7 C 434.12 111.84 397.28 117.93 396.52 117.93 C 396.35 117.93 396.22 109.22 396.23 98.57 Z"/>
<path transform="translate(0,0)" style="fill: rgb(224,200,229); fill-rule: evenodd" stroke-linecap="round" d="M 320.98 368.13 L 320.98 378.84 C 322.24 379.74 323.5 380.64 324.77 381.54 L 324.77 359.68 C 323.51 358.72 322.25 357.75 320.98 356.79 L 320.98 368.14 Z"/>
<path transform="translate(0,0)" style="fill: rgb(224,200,229); fill-rule: evenodd" stroke-linecap="round" d="M 384.3 298.01 C 384.56 298.27 384.64 292.46 384.46 285.09 C 384.29 277.72 384.15 271.42 384.16 271.08 C 384.16 270.74 382.69 271.68 380.89 273.16 L 377.61 275.85 L 380.72 286.7 C 382.43 292.67 384.04 297.76 384.31 298.02 Z"/>
<path transform="translate(0,0)" style="fill: rgb(224,200,229); fill-rule: evenodd" stroke-linecap="round" d="M 585.43 359.08 C 584.42 356.66 514 285.9 509.93 283.22 C 508.79 282.47 506.67 281.86 505.22 281.85 C 502.56 281.85 455.76 294.86 449.76 297.27 C 443.91 299.62 442.21 304.11 444.6 310.89 C 447.69 319.64 467.07 359.3 469.19 361.22 C 472.21 363.95 486.86 365.69 538.48 369.43 C 576.82 372.21 580.5 372.11 584.74 368.14 C 586.7 366.3 586.96 362.78 585.42 359.09 Z M 486.71 346.88 L 481.34 346.4 L 473.69 329.81 C 469.49 320.69 466.19 312.84 466.37 312.38 C 466.63 311.71 500.83 301.22 502.22 301.38 C 502.43 301.4 513.85 312.45 527.6 325.92 C 541.35 339.39 552.6 350.64 552.6 350.92 C 552.6 351.35 502.15 348.26 486.7 346.88 Z"/>
<path transform="translate(0,0)" style="fill: rgb(224,200,229); fill-rule: evenodd" stroke-linecap="round" d="M 370.64 383.35 L 370.64 140.87 L 353.16 123.38 C 343.55 113.76 335.6 105.89 335.49 105.89 C 335.38 105.89 335.3 168.32 335.3 244.62 L 335.3 383.35 L 370.64 383.35 Z"/>
<path transform="translate(0,0)" style="fill: rgb(224,200,229); fill-rule: evenodd" stroke-linecap="round" d="M 392.63 160.9 L 381.16 160.78 L 381.16 179.44 L 387.36 179.87 C 390.77 180.11 406.25 180.66 421.76 181.09 C 461.49 182.2 494.23 183.36 494.54 183.68 C 494.76 183.9 419.91 243.04 415.44 246.17 C 414.1 247.11 414.39 247.59 420.22 253.98 C 423.64 257.72 426.65 260.78 426.91 260.77 C 427.18 260.77 440.59 250.44 456.72 237.83 C 472.85 225.22 489.09 212.56 492.81 209.69 C 496.53 206.83 505.82 199.46 513.46 193.32 C 524.59 184.37 527.7 181.46 529.15 178.64 C 532.97 171.23 529.66 167.27 518.62 166.05 C 506.9 164.75 466.22 162.84 423.63 161.59 C 412.88 161.27 398.92 160.96 392.61 160.9 Z"/>
<path transform="translate(0,0)" style="fill: rgb(224,200,229); fill-rule: evenodd" stroke-linecap="round" d="M 440.93 431.49 C 440.97 431.83 438.94 439.71 437.25 441.96 C 436.38 443.12 435.5 443.95 434.31 444.77 C 429.16 448.3 421.43 441.82 417.81 438.06 C 413.68 433.77 408.94 429.15 404.72 424.97 C 400.24 420.54 387.54 409.17 385.79 404.18 C 385.13 402.29 384.89 400.62 384.55 398.68 L 373.28 391.35 C 372.63 391.48 371.25 392.28 371.03 392.28 L 341.95 392.28 C 342.3 393.31 343.1 394.17 343.71 394.58 C 350.07 398.88 357.47 403.68 363.9 408.1 C 378 417.81 391.95 427.67 406.13 437.02 C 412.77 441.39 421.05 447.97 428.31 450.79 C 431.37 451.98 434.15 452.86 436.98 452.23 C 437.43 452.13 439.05 451.71 440.31 450.76 C 446.29 446.25 440.85 430.65 440.94 431.49 Z"/>
<path transform="translate(0,0)" style="fill: rgb(224,200,229); fill-rule: evenodd" stroke-linecap="round" d="M 395.27 244.28 C 394.96 244.26 394.71 279.86 394.71 323.39 L 394.71 402.54 L 412.38 420.2 L 430.05 437.86 L 430.05 277.83 L 412.94 261.08 C 403.53 251.87 395.58 244.31 395.27 244.29 Z"/>
<path transform="translate(0,0)" style="fill: rgb(224,200,229); fill-rule: evenodd" stroke-linecap="round" d="M 300.36 401.43 C 298.05 399.2 295.67 398.18 293.2 398.37 L 293.2 398.37 C 290.74 398.19 288.37 399.2 286.06 401.43 C 281.41 405.92 250.43 443.34 249.35 445.77 C 248.76 447.1 248.46 449.28 248.68 450.63 C 249.47 455.44 285.34 548.6 287.14 550.51 C 289.04 552.53 291.22 553.7 293.21 553.9 L 293.21 553.9 C 293.21 553.9 293.21 553.9 293.21 553.9 C 293.21 553.9 293.21 553.9 293.22 553.9 L 293.22 553.9 C 295.2 553.7 297.38 552.53 299.29 550.51 C 301.09 548.6 336.96 455.44 337.75 450.63 C 337.97 449.29 337.67 447.1 337.08 445.77 C 336 443.34 305.02 405.93 300.37 401.43 Z M 305.97 484.19 C 299.28 502.24 293.6 517.1 293.35 517.22 C 293.34 517.22 293.29 517.15 293.23 517.03 L 293.23 517 C 293.23 517 293.23 517 293.23 517.02 C 293.23 517.02 293.23 517.02 293.23 517 L 293.23 517.03 C 293.17 517.16 293.12 517.23 293.11 517.22 C 292.86 517.11 287.18 502.25 280.49 484.19 C 273.8 466.14 268.38 451.21 268.44 451.01 C 268.86 449.67 292.39 422.73 293.11 422.77 C 293.13 422.77 293.18 422.8 293.23 422.83 L 293.23 422.83 C 293.23 422.83 293.23 422.83 293.23 422.83 C 293.23 422.83 293.23 422.83 293.23 422.83 L 293.23 422.83 C 293.28 422.79 293.33 422.76 293.35 422.76 C 294.06 422.72 317.6 449.67 318.02 451 C 318.08 451.2 312.66 466.13 305.97 484.18 Z"/>
</svg>